<?xml version="1.0" standalone="no"?>
<!DOCTYPE svg PUBLIC "-//W3C//DTD SVG 20010904//EN"
 "http://www.w3.org/TR/2001/REC-SVG-20010904/DTD/svg10.dtd">
<svg version="1.0" xmlns="http://www.w3.org/2000/svg"
 width="344.000000pt" height="344.000000pt" viewBox="0 0 344.000000 344.000000"
 preserveAspectRatio="xMidYMid meet">
<metadata>
Created by potrace 1.16, written by Peter Selinger 2001-2019
</metadata>
<g transform="translate(0.000000,344.000000) scale(0.100000,-0.100000)"
fill="#000000" stroke="none">
<path d="M645 2995 c-324 -88 -541 -346 -562 -669 -18 -296 156 -687 439 -982
l78 -81 -34 -99 c-18 -54 -57 -161 -85 -237 -29 -77 -49 -142 -46 -145 4 -4
53 -6 108 -5 177 3 361 65 495 165 l53 39 67 -15 c37 -8 97 -18 134 -21 65 -7
68 -8 76 -39 5 -17 37 -148 72 -291 35 -143 67 -264 71 -269 12 -14 154 91
229 171 114 119 188 252 221 394 l13 56 100 22 c485 108 785 432 846 913 5 46
10 157 10 248 l0 166 54 11 c170 36 313 173 358 342 29 113 19 281 -19 323
-12 14 -32 18 -80 18 -68 0 -106 -12 -165 -52 -28 -19 -54 -26 -116 -31 -101
-8 -182 -38 -220 -82 l-30 -34 -40 38 c-49 47 -110 69 -214 77 -65 6 -87 12
-130 40 -60 39 -91 47 -167 42 -78 -4 -93 -27 -99 -155 -8 -170 33 -286 138
-394 64 -65 171 -123 247 -135 l45 -7 -6 -51 c-11 -80 -41 -132 -94 -164 -42
-24 -57 -27 -137 -27 -80 0 -96 3 -145 29 -97 50 -192 141 -428 407 -250 283
-445 423 -666 479 -94 24 -291 27 -371 5z m323 -41 c246 -50 416 -180 817
-623 218 -241 315 -304 467 -303 102 1 153 18 204 67 49 47 74 117 74 205 l0
57 -66 12 c-234 43 -385 253 -358 499 9 88 25 104 92 96 32 -4 66 -16 85 -30
52 -39 93 -54 145 -54 58 0 153 -24 188 -47 14 -9 41 -39 59 -66 l34 -50 18
33 c50 92 109 124 251 138 74 8 100 15 131 36 44 31 91 46 142 46 29 0 38 -5
47 -25 18 -38 15 -211 -4 -276 -45 -153 -183 -274 -349 -302 l-63 -11 -4 -255
c-4 -235 -7 -264 -31 -352 -92 -346 -319 -575 -681 -688 -55 -17 -121 -34
-146 -37 l-47 -6 -5 108 c-4 88 -11 128 -38 208 -30 88 -32 100 -18 110 9 6
36 26 62 43 25 18 46 37 46 43 0 21 -34 9 -102 -36 -52 -35 -68 -50 -63 -63
34 -85 68 -207 77 -274 28 -211 -68 -453 -249 -628 -97 -93 -141 -126 -148
-107 -5 16 -196 763 -202 796 -3 13 -13 22 -24 22 -24 0 -24 6 11 -125 17 -60
30 -114 30 -119 0 -15 -141 2 -235 29 -343 98 -659 385 -850 770 -91 185 -124
293 -132 435 -3 67 -2 101 4 95 5 -5 31 -38 57 -73 177 -233 460 -416 725
-466 107 -20 191 -21 191 -2 0 10 -20 16 -72 21 -323 32 -657 237 -853 524
l-48 71 12 52 c6 29 30 91 53 138 33 67 60 103 128 171 70 71 101 94 180 133
151 74 296 93 458 60z m-203 -1803 c75 -52 148 -91 234 -126 l54 -22 -63 -43
c-84 -57 -174 -97 -273 -120 -91 -21 -227 -36 -227 -25 0 4 32 95 70 203 39
109 73 203 75 210 4 10 12 9 33 -7 15 -12 59 -43 97 -70z"/>
<path d="M1089 2297 c-39 -26 -66 -89 -56 -129 11 -42 55 -87 98 -98 110 -30
200 96 136 191 -42 62 -116 78 -178 36z"/>
</g>
</svg>
